<svg width="20" height="19" viewBox="0 0 20 19" fill="none" xmlns="http://www.w3.org/2000/svg">
<g clip-path="url(#clip0_87_2)">
<path d="M18.7503 13.4698H6.13794L6.77121 12.0355L17.2931 12.0143C17.6489 12.0143 17.9539 11.7316 18.0174 11.3406L19.4746 2.27048C19.5127 2.0326 19.4555 1.78765 19.3157 1.60159C19.2467 1.51001 19.1605 1.43625 19.0632 1.38541C18.9659 1.33457 18.8599 1.30788 18.7524 1.30718L5.36702 1.25772L5.25265 0.659477C5.18064 0.277922 4.87142 0 4.51984 0H1.24763C1.04935 0 0.859184 0.0875948 0.718976 0.243515C0.578768 0.399435 0.5 0.610908 0.5 0.831412C0.5 1.05192 0.578768 1.26339 0.718976 1.41931C0.859184 1.57523 1.04935 1.66282 1.24763 1.66282H3.91411L4.41394 4.30544L5.64447 10.9308L4.06025 13.8066C3.97798 13.9301 3.92843 14.0767 3.9172 14.2299C3.90597 14.3831 3.93351 14.5367 3.99671 14.6734C4.12379 14.9536 4.38006 15.1303 4.66386 15.1303H5.99392C5.71037 15.5491 5.55721 16.0592 5.55763 16.5835C5.55763 17.9166 6.53188 19 7.73063 19C8.92938 19 9.90363 17.9166 9.90363 16.5835C9.90363 16.0583 9.74691 15.5472 9.46734 15.1303H12.8793C12.5958 15.5491 12.4426 16.0592 12.443 16.5835C12.443 17.9166 13.4173 19 14.616 19C15.8148 19 16.789 17.9166 16.789 16.5835C16.789 16.0583 16.6323 15.5472 16.3527 15.1303H18.7524C19.1632 15.1303 19.5 14.7582 19.5 14.2989C19.4988 14.0786 19.4192 13.8678 19.2788 13.7125C19.1383 13.5572 18.9483 13.4699 18.7503 13.4698ZM5.67835 2.89699L17.8734 2.94174L16.6789 10.3797L7.09949 10.3985L5.67835 2.89699ZM7.73063 17.3278C7.36211 17.3278 7.06136 16.9933 7.06136 16.5835C7.06136 16.1737 7.36211 15.8392 7.73063 15.8392C8.09915 15.8392 8.3999 16.1737 8.3999 16.5835C8.3999 16.7809 8.32939 16.9702 8.20388 17.1098C8.07836 17.2493 7.90813 17.3278 7.73063 17.3278ZM14.616 17.3278C14.2475 17.3278 13.9468 16.9933 13.9468 16.5835C13.9468 16.1737 14.2475 15.8392 14.616 15.8392C14.9846 15.8392 15.2853 16.1737 15.2853 16.5835C15.2853 16.7809 15.2148 16.9702 15.0893 17.1098C14.9638 17.2493 14.7935 17.3278 14.616 17.3278Z" fill="white"/>
</g>
<defs>
<clipPath id="clip0_87_2">
<rect width="19" height="19" fill="white" transform="translate(0.5)"/>
</clipPath>
</defs>
</svg>
