<svg width="26" height="26" viewBox="0 0 26 26" fill="none" xmlns="http://www.w3.org/2000/svg">
<path d="M10.1339 15.0075L5.64 19.5028L6.50261 20.3587L11.0243 15.8356C11.4453 16.11 11.9194 16.2926 12.4157 16.3714V25H13.6261V16.3714C14.1415 16.283 14.6324 16.0862 15.0661 15.7939L19.5113 20.2404L20.3739 19.3845L15.9357 14.9449C16.2704 14.4902 16.4943 13.9636 16.5896 13.4071H25V12.1963H16.5687C16.4899 11.6999 16.3074 11.2257 16.033 10.8046L20.207 6.62946L19.3513 5.77356L15.1774 9.94868C14.7103 9.58712 14.1603 9.34794 13.5774 9.25283V1H12.3948V9.23195C11.8384 9.32725 11.3119 9.55124 10.8574 9.88605L6.62087 5.6483L5.75826 6.49725L10.0087 10.7489C9.71356 11.1812 9.5165 11.6728 9.4313 12.1893H1V13.4001H9.4313C9.52733 13.9863 9.76892 14.539 10.1339 15.0075ZM13 10.3871C13.4765 10.3912 13.9412 10.5363 14.3354 10.8041C14.7296 11.0719 15.0357 11.4505 15.2152 11.892C15.3947 12.3336 15.4396 12.8184 15.3441 13.2854C15.2486 13.7524 15.0171 14.1807 14.6787 14.5163C14.3403 14.8519 13.9101 15.0798 13.4424 15.1713C12.9748 15.2628 12.4905 15.2138 12.0506 15.0304C11.6107 14.8471 11.235 14.5376 10.9706 14.141C10.7063 13.7444 10.5652 13.2784 10.5652 12.8017C10.5652 12.4828 10.6283 12.1671 10.7509 11.8728C10.8736 11.5785 11.0532 11.3114 11.2796 11.0869C11.506 10.8624 11.7745 10.685 12.0698 10.5648C12.3651 10.4447 12.6812 10.3843 13 10.3871Z" fill="white" stroke="white" stroke-width="2" stroke-miterlimit="10"/>
</svg>
