<svg width="106" height="22" viewBox="0 0 106 22" fill="none" xmlns="http://www.w3.org/2000/svg">
<path d="M8.10044 13.5057L4.73 16.8771L5.37696 17.519L8.76826 14.1267C9.084 14.3325 9.43955 14.4694 9.81174 14.5286V21H10.7196V14.5286C11.1062 14.4623 11.4743 14.3146 11.7996 14.0954L15.1335 17.4303L15.7804 16.7883L12.4517 13.4587C12.7028 13.1177 12.8707 12.7227 12.9422 12.3053H19.25V11.3972H12.9265C12.8674 11.0249 12.7305 10.6693 12.5248 10.3534L15.6552 7.22209L15.0135 6.58017L11.883 9.71151C11.5327 9.44034 11.1202 9.26096 10.683 9.18962V3H9.79609V9.17396C9.37879 9.24544 8.98395 9.41343 8.64304 9.66454L5.46565 6.48623L4.8187 7.12293L8.00652 10.3117C7.78517 10.6359 7.63737 11.0046 7.57348 11.392H1.25V12.3001H7.57348C7.6455 12.7397 7.82669 13.1542 8.10044 13.5057ZM10.25 10.0403C10.6074 10.0434 10.9559 10.1522 11.2515 10.3531C11.5472 10.5539 11.7768 10.8378 11.9114 11.169C12.0461 11.5002 12.0797 11.8638 12.0081 12.2141C11.9365 12.5643 11.7628 12.8855 11.509 13.1372C11.2552 13.3889 10.9326 13.5599 10.5818 13.6285C10.2311 13.6971 9.86786 13.6603 9.53796 13.5228C9.20806 13.3853 8.92622 13.1532 8.72797 12.8557C8.52972 12.5583 8.42393 12.2088 8.42391 11.8513C8.4239 11.6121 8.47125 11.3753 8.56321 11.1546C8.65517 10.9339 8.78992 10.7335 8.9597 10.5652C9.12948 10.3968 9.33091 10.2637 9.55237 10.1736C9.77383 10.0836 10.0109 10.0382 10.25 10.0403Z" fill="white" stroke="white" stroke-width="2" stroke-miterlimit="10"/>
<path d="M36.214 16.74C36.214 16.866 36.25 16.968 36.322 17.046C36.4 17.124 36.511 17.181 36.655 17.217L37.258 17.325C37.48 17.385 37.591 17.505 37.591 17.685C37.591 17.781 37.555 17.859 37.483 17.919C37.417 17.973 37.309 18 37.159 18H33.172C33.028 18 32.92 17.973 32.848 17.919C32.776 17.859 32.74 17.781 32.74 17.685C32.74 17.505 32.851 17.385 33.073 17.325L33.676 17.217C33.82 17.181 33.928 17.124 34 17.046C34.078 16.968 34.117 16.866 34.117 16.74V6.66C34.117 6.534 34.078 6.432 34 6.354C33.928 6.276 33.82 6.219 33.676 6.183L33.073 6.075C32.851 6.015 32.74 5.895 32.74 5.715C32.74 5.613 32.776 5.535 32.848 5.481C32.92 5.427 33.028 5.4 33.172 5.4H37.159C37.309 5.4 37.417 5.427 37.483 5.481C37.555 5.535 37.591 5.613 37.591 5.715C37.591 5.895 37.48 6.015 37.258 6.075L36.655 6.183C36.511 6.219 36.4 6.276 36.322 6.354C36.25 6.432 36.214 6.534 36.214 6.66V16.74ZM42.3589 9.9V16.776C42.3589 16.938 42.3889 17.061 42.4489 17.145C42.5089 17.223 42.5989 17.277 42.7189 17.307L43.1239 17.397C43.3039 17.463 43.3939 17.562 43.3939 17.694C43.3939 17.898 43.2589 18 42.9889 18H39.7759C39.6439 18 39.5449 17.976 39.4789 17.928C39.4129 17.874 39.3799 17.802 39.3799 17.712C39.3799 17.634 39.4039 17.571 39.4519 17.523C39.5059 17.475 39.5839 17.436 39.6859 17.406L40.1179 17.307C40.2319 17.271 40.3189 17.217 40.3789 17.145C40.4389 17.067 40.4689 16.947 40.4689 16.785V11.169C40.4689 11.031 40.4479 10.935 40.4059 10.881C40.3639 10.821 40.2919 10.785 40.1899 10.773L39.5689 10.746C39.4729 10.728 39.4009 10.698 39.3529 10.656C39.3109 10.614 39.2899 10.56 39.2899 10.494C39.2899 10.416 39.3139 10.353 39.3619 10.305C39.4159 10.257 39.5089 10.209 39.6409 10.161L41.1529 9.63C41.3329 9.564 41.4799 9.519 41.5939 9.495C41.7139 9.465 41.8219 9.45 41.9179 9.45C42.0619 9.45 42.1699 9.492 42.2419 9.576C42.3199 9.654 42.3589 9.762 42.3589 9.9ZM42.1069 11.808L41.7649 11.457L42.1519 11.115C42.8659 10.473 43.4899 10.023 44.0239 9.765C44.5639 9.507 45.0799 9.378 45.5719 9.378C46.3279 9.378 46.9369 9.615 47.3989 10.089C47.8609 10.563 48.0919 11.208 48.0919 12.024V16.749C48.0919 16.917 48.1249 17.046 48.1909 17.136C48.2629 17.22 48.3589 17.28 48.4789 17.316L48.8659 17.406C48.9679 17.436 49.0429 17.475 49.0909 17.523C49.1389 17.571 49.1629 17.634 49.1629 17.712C49.1629 17.802 49.1299 17.874 49.0639 17.928C49.0039 17.976 48.9079 18 48.7759 18H45.5449C45.2749 18 45.1399 17.898 45.1399 17.694C45.1399 17.562 45.2299 17.463 45.4099 17.397L45.8329 17.307C45.9649 17.277 46.0579 17.217 46.1119 17.127C46.1719 17.037 46.2019 16.911 46.2019 16.749V12.312C46.2019 11.712 46.0519 11.262 45.7519 10.962C45.4579 10.662 45.0679 10.512 44.5819 10.512C44.2759 10.512 43.9489 10.59 43.6009 10.746C43.2529 10.896 42.8839 11.139 42.4939 11.475L42.1069 11.808ZM50.9838 10.287L50.4978 10.17C50.3478 10.128 50.2458 10.08 50.1918 10.026C50.1378 9.972 50.1108 9.909 50.1108 9.837C50.1108 9.747 50.1408 9.678 50.2008 9.63C50.2668 9.582 50.3538 9.558 50.4618 9.558H51.0468C51.2028 9.558 51.3288 9.534 51.4248 9.486C51.5208 9.438 51.6048 9.348 51.6768 9.216L52.4148 7.893C52.5048 7.755 52.5918 7.656 52.6758 7.596C52.7658 7.536 52.8588 7.506 52.9548 7.506C53.0568 7.506 53.1348 7.539 53.1888 7.605C53.2428 7.665 53.2698 7.752 53.2698 7.866V15.786C53.2698 16.2 53.3538 16.518 53.5218 16.74C53.6958 16.956 53.9358 17.064 54.2418 17.064C54.4578 17.064 54.6258 17.028 54.7458 16.956C54.8718 16.884 54.9678 16.8 55.0338 16.704C55.1058 16.602 55.1718 16.515 55.2318 16.443C55.2978 16.365 55.3788 16.323 55.4748 16.317C55.5468 16.311 55.6008 16.332 55.6368 16.38C55.6788 16.428 55.6998 16.506 55.6998 16.614C55.6938 16.878 55.5978 17.127 55.4118 17.361C55.2318 17.595 54.9798 17.787 54.6558 17.937C54.3318 18.081 53.9598 18.153 53.5398 18.153C52.8798 18.153 52.3548 17.982 51.9648 17.64C51.5748 17.298 51.3798 16.779 51.3798 16.083V10.8C51.3798 10.656 51.3498 10.548 51.2898 10.476C51.2358 10.398 51.1338 10.335 50.9838 10.287ZM52.4328 10.251V9.558H55.2588C55.3788 9.558 55.4688 9.582 55.5288 9.63C55.5948 9.672 55.6278 9.738 55.6278 9.828C55.6278 9.954 55.5648 10.056 55.4388 10.134C55.3188 10.212 55.1238 10.251 54.8538 10.251H52.4328ZM59.6838 13.311C59.6838 12.465 59.8098 11.748 60.0618 11.16C60.3138 10.572 60.6408 10.128 61.0428 9.828C61.4448 9.528 61.8708 9.378 62.3208 9.378C62.8608 9.378 63.2808 9.528 63.5808 9.828C63.8808 10.122 64.0308 10.533 64.0308 11.061C64.0308 11.475 63.9408 11.787 63.7608 11.997C63.5868 12.207 63.3618 12.312 63.0858 12.312C62.8038 12.312 62.5848 12.234 62.4288 12.078C62.2728 11.922 62.1948 11.703 62.1948 11.421V11.115C62.1948 10.911 62.1468 10.761 62.0508 10.665C61.9548 10.563 61.7988 10.512 61.5828 10.512C61.3248 10.512 61.0728 10.617 60.8268 10.827C60.5808 11.031 60.3798 11.34 60.2238 11.754C60.0678 12.162 59.9898 12.681 59.9898 13.311H59.6838ZM59.8998 9.909L59.9898 12.042V16.776C59.9898 16.926 60.0228 17.04 60.0888 17.118C60.1608 17.196 60.2808 17.247 60.4488 17.271L61.2588 17.388C61.3788 17.4 61.4688 17.433 61.5288 17.487C61.5888 17.541 61.6188 17.613 61.6188 17.703C61.6188 17.799 61.5828 17.874 61.5107 17.928C61.4448 17.976 61.3458 18 61.2138 18H57.4067C57.2748 18 57.1758 17.973 57.1098 17.919C57.0438 17.865 57.0108 17.796 57.0108 17.712C57.0108 17.634 57.0348 17.571 57.0828 17.523C57.1368 17.475 57.2148 17.436 57.3168 17.406L57.7488 17.307C57.8628 17.277 57.9498 17.223 58.0098 17.145C58.0698 17.067 58.0998 16.947 58.0998 16.785V11.178C58.0998 11.046 58.0788 10.95 58.0368 10.89C57.9948 10.83 57.9228 10.794 57.8208 10.782L57.1998 10.755C57.1038 10.743 57.0318 10.716 56.9838 10.674C56.9418 10.632 56.9208 10.578 56.9208 10.512C56.9208 10.434 56.9448 10.371 56.9928 10.323C57.0468 10.269 57.1398 10.221 57.2718 10.179L58.7568 9.657C58.9848 9.573 59.1558 9.519 59.2698 9.495C59.3838 9.465 59.4738 9.45 59.5398 9.45C59.6538 9.45 59.7378 9.486 59.7918 9.558C59.8458 9.624 59.8818 9.741 59.8998 9.909ZM68.0847 9.9V16.776C68.0847 16.938 68.1147 17.061 68.1747 17.145C68.2347 17.223 68.3217 17.277 68.4357 17.307L68.8497 17.397C68.9517 17.427 69.0267 17.469 69.0747 17.523C69.1287 17.571 69.1557 17.634 69.1557 17.712C69.1557 17.802 69.1227 17.874 69.0567 17.928C68.9907 17.976 68.8917 18 68.7597 18H65.4927C65.3607 18 65.2617 17.976 65.1957 17.928C65.1357 17.874 65.1057 17.802 65.1057 17.712C65.1057 17.634 65.1297 17.571 65.1777 17.523C65.2257 17.475 65.3007 17.436 65.4027 17.406L65.8347 17.307C65.9547 17.271 66.0447 17.217 66.1047 17.145C66.1647 17.067 66.1947 16.947 66.1947 16.785V11.169C66.1947 11.031 66.1707 10.935 66.1227 10.881C66.0807 10.821 66.0087 10.785 65.9067 10.773L65.2947 10.746C65.1927 10.728 65.1207 10.698 65.0787 10.656C65.0367 10.614 65.0157 10.56 65.0157 10.494C65.0157 10.416 65.0397 10.353 65.0877 10.305C65.1357 10.257 65.2257 10.209 65.3577 10.161L66.8697 9.63C67.0617 9.564 67.2147 9.519 67.3287 9.495C67.4427 9.465 67.5387 9.45 67.6167 9.45C67.7727 9.45 67.8897 9.492 67.9677 9.576C68.0457 9.654 68.0847 9.762 68.0847 9.9ZM66.9417 7.776C66.5517 7.776 66.2367 7.671 65.9967 7.461C65.7627 7.245 65.6457 6.969 65.6457 6.633C65.6457 6.297 65.7627 6.024 65.9967 5.814C66.2367 5.604 66.5517 5.499 66.9417 5.499C67.3317 5.499 67.6467 5.604 67.8867 5.814C68.1267 6.024 68.2467 6.297 68.2467 6.633C68.2467 6.969 68.1267 7.245 67.8867 7.461C67.6467 7.671 67.3317 7.776 66.9417 7.776ZM73.4546 9.9V16.776C73.4546 16.938 73.4846 17.061 73.5446 17.145C73.6046 17.223 73.6946 17.277 73.8146 17.307L74.2196 17.397C74.3996 17.463 74.4896 17.562 74.4896 17.694C74.4896 17.898 74.3546 18 74.0846 18H70.8716C70.7396 18 70.6406 17.976 70.5746 17.928C70.5086 17.874 70.4756 17.802 70.4756 17.712C70.4756 17.634 70.4996 17.571 70.5476 17.523C70.6016 17.475 70.6796 17.436 70.7816 17.406L71.2136 17.307C71.3276 17.271 71.4146 17.217 71.4746 17.145C71.5346 17.067 71.5646 16.947 71.5646 16.785V11.169C71.5646 11.031 71.5436 10.935 71.5016 10.881C71.4596 10.821 71.3876 10.785 71.2856 10.773L70.6646 10.746C70.5686 10.728 70.4966 10.698 70.4486 10.656C70.4066 10.614 70.3856 10.56 70.3856 10.494C70.3856 10.416 70.4096 10.353 70.4576 10.305C70.5116 10.257 70.6046 10.209 70.7366 10.161L72.2486 9.63C72.4286 9.564 72.5756 9.519 72.6896 9.495C72.8096 9.465 72.9176 9.45 73.0136 9.45C73.1576 9.45 73.2656 9.492 73.3376 9.576C73.4156 9.654 73.4546 9.762 73.4546 9.9ZM73.2026 11.808L72.8606 11.457L73.2476 11.115C73.9616 10.473 74.5856 10.023 75.1196 9.765C75.6596 9.507 76.1756 9.378 76.6676 9.378C77.4236 9.378 78.0326 9.615 78.4946 10.089C78.9566 10.563 79.1876 11.208 79.1876 12.024V16.749C79.1876 16.917 79.2206 17.046 79.2866 17.136C79.3586 17.22 79.4546 17.28 79.5746 17.316L79.9616 17.406C80.0636 17.436 80.1386 17.475 80.1866 17.523C80.2346 17.571 80.2586 17.634 80.2586 17.712C80.2586 17.802 80.2256 17.874 80.1596 17.928C80.0996 17.976 80.0036 18 79.8716 18H76.6406C76.3706 18 76.2356 17.898 76.2356 17.694C76.2356 17.562 76.3256 17.463 76.5056 17.397L76.9286 17.307C77.0606 17.277 77.1536 17.217 77.2076 17.127C77.2676 17.037 77.2976 16.911 77.2976 16.749V12.312C77.2976 11.712 77.1476 11.262 76.8476 10.962C76.5536 10.662 76.1636 10.512 75.6776 10.512C75.3716 10.512 75.0446 10.59 74.6966 10.746C74.3486 10.896 73.9796 11.139 73.5896 11.475L73.2026 11.808ZM84.7615 10.026C84.3115 10.026 83.9545 10.143 83.6905 10.377C83.4325 10.611 83.3035 10.914 83.3035 11.286C83.3035 11.52 83.3575 11.73 83.4655 11.916C83.5735 12.102 83.7685 12.273 84.0505 12.429C84.3325 12.579 84.7345 12.72 85.2565 12.852C86.0845 13.044 86.7295 13.281 87.1915 13.563C87.6595 13.839 87.9865 14.154 88.1725 14.508C88.3645 14.862 88.4605 15.252 88.4605 15.678C88.4605 16.44 88.1875 17.052 87.6415 17.514C87.1015 17.976 86.3245 18.207 85.3105 18.207C84.9385 18.207 84.6295 18.174 84.3835 18.108C84.1435 18.042 83.9425 17.976 83.7805 17.91C83.6245 17.844 83.4865 17.811 83.3665 17.811C83.2465 17.811 83.1505 17.844 83.0785 17.91C83.0125 17.976 82.9465 18.042 82.8805 18.108C82.8205 18.18 82.7395 18.216 82.6375 18.216C82.5535 18.216 82.4875 18.189 82.4395 18.135C82.3975 18.087 82.3555 18.003 82.3135 17.883L81.6565 15.966C81.6085 15.804 81.5935 15.672 81.6115 15.57C81.6295 15.462 81.6955 15.387 81.8095 15.345C81.9175 15.303 82.0105 15.303 82.0885 15.345C82.1725 15.387 82.2475 15.465 82.3135 15.579C82.5775 16.077 82.8625 16.47 83.1685 16.758C83.4805 17.046 83.8075 17.253 84.1495 17.379C84.4975 17.499 84.8545 17.559 85.2205 17.559C85.7845 17.559 86.2075 17.439 86.4895 17.199C86.7775 16.953 86.9215 16.632 86.9215 16.236C86.9215 16.002 86.8615 15.786 86.7415 15.588C86.6215 15.39 86.4025 15.21 86.0845 15.048C85.7665 14.88 85.3135 14.721 84.7255 14.571C83.9995 14.397 83.4205 14.184 82.9885 13.932C82.5625 13.68 82.2535 13.38 82.0615 13.032C81.8755 12.678 81.7825 12.267 81.7825 11.799C81.7825 11.325 81.9025 10.905 82.1425 10.539C82.3825 10.173 82.7185 9.888 83.1505 9.684C83.5825 9.48 84.0925 9.378 84.6805 9.378C85.0525 9.378 85.3555 9.414 85.5895 9.486C85.8295 9.558 86.0245 9.633 86.1745 9.711C86.3245 9.783 86.4595 9.819 86.5795 9.819C86.7055 9.819 86.8045 9.783 86.8765 9.711C86.9545 9.633 87.0235 9.558 87.0835 9.486C87.1495 9.414 87.2305 9.378 87.3265 9.378C87.3925 9.378 87.4495 9.402 87.4975 9.45C87.5515 9.498 87.5905 9.582 87.6145 9.702L88.1275 11.511C88.1695 11.685 88.1845 11.829 88.1725 11.943C88.1605 12.051 88.0945 12.129 87.9745 12.177C87.8725 12.219 87.7795 12.213 87.6955 12.159C87.6175 12.099 87.5365 11.997 87.4525 11.853C87.1105 11.193 86.6995 10.725 86.2195 10.449C85.7455 10.167 85.2595 10.026 84.7615 10.026ZM92.9753 9.9V16.776C92.9753 16.938 93.0053 17.061 93.0653 17.145C93.1253 17.223 93.2123 17.277 93.3263 17.307L93.7403 17.397C93.8423 17.427 93.9173 17.469 93.9653 17.523C94.0193 17.571 94.0463 17.634 94.0463 17.712C94.0463 17.802 94.0133 17.874 93.9473 17.928C93.8813 17.976 93.7823 18 93.6503 18H90.3833C90.2513 18 90.1523 17.976 90.0863 17.928C90.0263 17.874 89.9963 17.802 89.9963 17.712C89.9963 17.634 90.0203 17.571 90.0683 17.523C90.1163 17.475 90.1913 17.436 90.2933 17.406L90.7253 17.307C90.8453 17.271 90.9353 17.217 90.9953 17.145C91.0553 17.067 91.0853 16.947 91.0853 16.785V11.169C91.0853 11.031 91.0613 10.935 91.0133 10.881C90.9713 10.821 90.8993 10.785 90.7973 10.773L90.1853 10.746C90.0833 10.728 90.0113 10.698 89.9693 10.656C89.9273 10.614 89.9063 10.56 89.9063 10.494C89.9063 10.416 89.9303 10.353 89.9783 10.305C90.0263 10.257 90.1163 10.209 90.2483 10.161L91.7603 9.63C91.9523 9.564 92.1053 9.519 92.2193 9.495C92.3333 9.465 92.4293 9.45 92.5073 9.45C92.6633 9.45 92.7803 9.492 92.8583 9.576C92.9363 9.654 92.9753 9.762 92.9753 9.9ZM91.8323 7.776C91.4423 7.776 91.1273 7.671 90.8873 7.461C90.6533 7.245 90.5363 6.969 90.5363 6.633C90.5363 6.297 90.6533 6.024 90.8873 5.814C91.1273 5.604 91.4423 5.499 91.8323 5.499C92.2223 5.499 92.5373 5.604 92.7773 5.814C93.0173 6.024 93.1373 6.297 93.1373 6.633C93.1373 6.969 93.0173 7.245 92.7773 7.461C92.5373 7.671 92.2223 7.776 91.8323 7.776ZM103.043 11.709C103.043 11.991 102.95 12.228 102.764 12.42C102.578 12.606 102.332 12.699 102.026 12.699C101.726 12.699 101.492 12.615 101.324 12.447C101.162 12.273 101.081 12.045 101.081 11.763V11.475C101.081 11.055 100.934 10.716 100.64 10.458C100.346 10.2 99.9442 10.071 99.4342 10.071C98.9722 10.071 98.5612 10.203 98.2012 10.467C97.8472 10.725 97.5682 11.094 97.3642 11.574C97.1602 12.048 97.0582 12.606 97.0582 13.248C97.0582 14.034 97.1902 14.697 97.4542 15.237C97.7242 15.777 98.0902 16.188 98.5522 16.47C99.0202 16.752 99.5512 16.893 100.145 16.893C100.715 16.893 101.21 16.761 101.63 16.497C102.05 16.233 102.35 15.882 102.53 15.444C102.602 15.348 102.662 15.282 102.71 15.246C102.764 15.21 102.821 15.192 102.881 15.192C102.965 15.192 103.022 15.225 103.052 15.291C103.088 15.357 103.103 15.435 103.097 15.525C103.055 16.023 102.878 16.476 102.566 16.884C102.254 17.286 101.84 17.607 101.324 17.847C100.808 18.087 100.217 18.207 99.5512 18.207C98.7172 18.207 97.9792 18.033 97.3372 17.685C96.7012 17.331 96.2032 16.836 95.8432 16.2C95.4892 15.558 95.3122 14.805 95.3122 13.941C95.3122 13.083 95.4922 12.312 95.8522 11.628C96.2182 10.938 96.7282 10.392 97.3822 9.99C98.0422 9.582 98.8162 9.378 99.7042 9.378C100.394 9.378 100.988 9.486 101.486 9.702C101.984 9.912 102.368 10.194 102.638 10.548C102.908 10.902 103.043 11.289 103.043 11.709Z" fill="white"/>
</svg>
